<?xml version="1.0" encoding="UTF-8"?>
<!-- 2021-01-18 21:52:03 Generated by QCAD 3.25.2 SVG Exporter -->
<svg width="266.6009" height="114.2011" viewBox="0.0951 -114.558 266.6009 114.2011" version="1.1" xmlns="http://www.w3.org/2000/svg" style="stroke-linecap:round;stroke-linejoin:round;fill:none">
    <g transform="scale(1,-1)">
        <!-- Line -->
        <path d="M263.696,114.558 L263.931,114.548 " style="stroke:#000000;stroke-width:0.25;"/>
        <!-- Line -->
        <path d="M263.931,114.548 L264.166,114.522 " style="stroke:#000000;stroke-width:0.25;"/>
        <!-- Line -->
        <path d="M264.166,114.522 L264.396,114.475 " style="stroke:#000000;stroke-width:0.25;"/>
        <!-- Line -->
        <path d="M264.396,114.475 L264.623,114.411 " style="stroke:#000000;stroke-width:0.25;"/>
        <!-- Line -->
        <path d="M264.623,114.411 L264.845,114.329 " style="stroke:#000000;stroke-width:0.25;"/>
        <!-- Line -->
        <path d="M264.845,114.329 L265.057,114.231 " style="stroke:#000000;stroke-width:0.25;"/>
        <!-- Line -->
        <path d="M265.057,114.231 L265.264,114.115 " style="stroke:#000000;stroke-width:0.25;"/>
        <!-- Line -->
        <path d="M265.264,114.115 L265.46,113.986 " style="stroke:#000000;stroke-width:0.25;"/>
        <!-- Line -->
        <path d="M265.46,113.986 L265.644,113.84 " style="stroke:#000000;stroke-width:0.25;"/>
        <!-- Line -->
        <path d="M265.644,113.84 L265.818,113.68 " style="stroke:#000000;stroke-width:0.25;"/>
        <!-- Line -->
        <path d="M265.818,113.68 L265.978,113.506 " style="stroke:#000000;stroke-width:0.25;"/>
        <!-- Line -->
        <path d="M265.978,113.506 L266.124,113.322 " style="stroke:#000000;stroke-width:0.25;"/>
        <!-- Line -->
        <path d="M266.124,113.322 L266.253,113.126 " style="stroke:#000000;stroke-width:0.25;"/>
        <!-- Line -->
        <path d="M266.253,113.126 L266.369,112.919 " style="stroke:#000000;stroke-width:0.25;"/>
        <!-- Line -->
        <path d="M266.369,112.919 L266.467,112.705 " style="stroke:#000000;stroke-width:0.25;"/>
        <!-- Line -->
        <path d="M266.467,112.705 L266.55,112.485 " style="stroke:#000000;stroke-width:0.25;"/>
        <!-- Line -->
        <path d="M266.55,112.485 L266.613,112.258 " style="stroke:#000000;stroke-width:0.25;"/>
        <!-- Line -->
        <path d="M266.613,112.258 L266.66,112.028 " style="stroke:#000000;stroke-width:0.25;"/>
        <!-- Line -->
        <path d="M266.66,112.028 L266.686,111.794 " style="stroke:#000000;stroke-width:0.25;"/>
        <!-- Line -->
        <path d="M266.686,111.794 L266.696,111.558 " style="stroke:#000000;stroke-width:0.25;"/>
        <!-- Line -->
        <path d="M266.696,111.558 L266.696,3.3569 " style="stroke:#000000;stroke-width:0.25;"/>
        <!-- Line -->
        <path d="M266.696,3.3569 L266.686,3.1213 " style="stroke:#000000;stroke-width:0.25;"/>
        <!-- Line -->
        <path d="M266.686,3.1213 L266.66,2.887 " style="stroke:#000000;stroke-width:0.25;"/>
        <!-- Line -->
        <path d="M266.66,2.887 L266.613,2.6569 " style="stroke:#000000;stroke-width:0.25;"/>
        <!-- Line -->
        <path d="M266.613,2.6569 L266.55,2.4295 " style="stroke:#000000;stroke-width:0.25;"/>
        <!-- Line -->
        <path d="M266.55,2.4295 L266.467,2.2076 " style="stroke:#000000;stroke-width:0.25;"/>
        <!-- Line -->
        <path d="M266.467,2.2076 L266.369,1.9954 " style="stroke:#000000;stroke-width:0.25;"/>
        <!-- Line -->
        <path d="M266.369,1.9954 L266.253,1.7887 " style="stroke:#000000;stroke-width:0.25;"/>
        <!-- Line -->
        <path d="M266.253,1.7887 L266.124,1.593 " style="stroke:#000000;stroke-width:0.25;"/>
        <!-- Line -->
        <path d="M266.124,1.593 L265.978,1.4084 " style="stroke:#000000;stroke-width:0.25;"/>
        <!-- Line -->
        <path d="M265.978,1.4084 L265.818,1.2347 " style="stroke:#000000;stroke-width:0.25;"/>
        <!-- Line -->
        <path d="M265.818,1.2347 L265.644,1.0749 " style="stroke:#000000;stroke-width:0.25;"/>
        <!-- Line -->
        <path d="M265.644,1.0749 L265.46,0.9288 " style="stroke:#000000;stroke-width:0.25;"/>
        <!-- Line -->
        <path d="M265.46,0.9288 L265.264,0.7993 " style="stroke:#000000;stroke-width:0.25;"/>
        <!-- Line -->
        <path d="M265.264,0.7993 L265.057,0.6835 " style="stroke:#000000;stroke-width:0.25;"/>
        <!-- Line -->
        <path d="M265.057,0.6835 L264.845,0.5857 " style="stroke:#000000;stroke-width:0.25;"/>
        <!-- Line -->
        <path d="M264.845,0.5857 L264.623,0.503 " style="stroke:#000000;stroke-width:0.25;"/>
        <!-- Line -->
        <path d="M264.623,0.503 L264.396,0.4396 " style="stroke:#000000;stroke-width:0.25;"/>
        <!-- Line -->
        <path d="M264.396,0.4396 L264.166,0.3927 " style="stroke:#000000;stroke-width:0.25;"/>
        <!-- Line -->
        <path d="M264.166,0.3927 L263.931,0.3666 " style="stroke:#000000;stroke-width:0.25;"/>
        <!-- Line -->
        <path d="M263.931,0.3666 L263.696,0.3569 " style="stroke:#000000;stroke-width:0.25;"/>
        <!-- Line -->
        <path d="M263.696,0.3569 L3.0951,0.3569 " style="stroke:#000000;stroke-width:0.25;"/>
        <!-- Line -->
        <path d="M3.0951,0.3569 L2.8594,0.3666 " style="stroke:#000000;stroke-width:0.25;"/>
        <!-- Line -->
        <path d="M2.8594,0.3666 L2.6252,0.3927 " style="stroke:#000000;stroke-width:0.25;"/>
        <!-- Line -->
        <path d="M2.6252,0.3927 L2.395,0.4396 " style="stroke:#000000;stroke-width:0.25;"/>
        <!-- Line -->
        <path d="M2.395,0.4396 L2.1677,0.503 " style="stroke:#000000;stroke-width:0.25;"/>
        <!-- Line -->
        <path d="M2.1677,0.503 L1.9472,0.5857 " style="stroke:#000000;stroke-width:0.25;"/>
        <!-- Line -->
        <path d="M1.9472,0.5857 L1.7336,0.6835 " style="stroke:#000000;stroke-width:0.25;"/>
        <!-- Line -->
        <path d="M1.7336,0.6835 L1.5269,0.7993 " style="stroke:#000000;stroke-width:0.25;"/>
        <!-- Line -->
        <path d="M1.5269,0.7993 L1.3312,0.9288 " style="stroke:#000000;stroke-width:0.25;"/>
        <!-- Line -->
        <path d="M1.3312,0.9288 L1.1465,1.0749 " style="stroke:#000000;stroke-width:0.25;"/>
        <!-- Line -->
        <path d="M1.1465,1.0749 L0.9729,1.2347 " style="stroke:#000000;stroke-width:0.25;"/>
        <!-- Line -->
        <path d="M0.9729,1.2347 L0.813,1.4084 " style="stroke:#000000;stroke-width:0.25;"/>
        <!-- Line -->
        <path d="M0.813,1.4084 L0.667,1.593 " style="stroke:#000000;stroke-width:0.25;"/>
        <!-- Line -->
        <path d="M0.667,1.593 L0.5374,1.7887 " style="stroke:#000000;stroke-width:0.25;"/>
        <!-- Line -->
        <path d="M0.5374,1.7887 L0.4217,1.9954 " style="stroke:#000000;stroke-width:0.25;"/>
        <!-- Line -->
        <path d="M0.4217,1.9954 L0.3238,2.2076 " style="stroke:#000000;stroke-width:0.25;"/>
        <!-- Line -->
        <path d="M0.3238,2.2076 L0.2412,2.4295 " style="stroke:#000000;stroke-width:0.25;"/>
        <!-- Line -->
        <path d="M0.2412,2.4295 L0.1778,2.6569 " style="stroke:#000000;stroke-width:0.25;"/>
        <!-- Line -->
        <path d="M0.1778,2.6569 L0.1309,2.887 " style="stroke:#000000;stroke-width:0.25;"/>
        <!-- Line -->
        <path d="M0.1309,2.887 L0.1047,3.1213 " style="stroke:#000000;stroke-width:0.25;"/>
        <!-- Line -->
        <path d="M0.1047,3.1213 L0.0951,3.3569 " style="stroke:#000000;stroke-width:0.25;"/>
        <!-- Line -->
        <path d="M0.0951,3.3569 L0.0951,111.558 " style="stroke:#000000;stroke-width:0.25;"/>
        <!-- Line -->
        <path d="M0.0951,111.558 L0.1047,111.794 " style="stroke:#000000;stroke-width:0.25;"/>
        <!-- Line -->
        <path d="M0.1047,111.794 L0.1309,112.028 " style="stroke:#000000;stroke-width:0.25;"/>
        <!-- Line -->
        <path d="M0.1309,112.028 L0.1778,112.258 " style="stroke:#000000;stroke-width:0.25;"/>
        <!-- Line -->
        <path d="M0.1778,112.258 L0.2412,112.485 " style="stroke:#000000;stroke-width:0.25;"/>
        <!-- Line -->
        <path d="M0.2412,112.485 L0.3238,112.705 " style="stroke:#000000;stroke-width:0.25;"/>
        <!-- Line -->
        <path d="M0.3238,112.705 L0.4217,112.919 " style="stroke:#000000;stroke-width:0.25;"/>
        <!-- Line -->
        <path d="M0.4217,112.919 L0.5374,113.126 " style="stroke:#000000;stroke-width:0.25;"/>
        <!-- Line -->
        <path d="M0.5374,113.126 L0.667,113.322 " style="stroke:#000000;stroke-width:0.25;"/>
        <!-- Line -->
        <path d="M0.667,113.322 L0.813,113.506 " style="stroke:#000000;stroke-width:0.25;"/>
        <!-- Line -->
        <path d="M0.813,113.506 L0.9729,113.68 " style="stroke:#000000;stroke-width:0.25;"/>
        <!-- Line -->
        <path d="M0.9729,113.68 L1.1465,113.84 " style="stroke:#000000;stroke-width:0.25;"/>
        <!-- Line -->
        <path d="M1.1465,113.84 L1.3312,113.986 " style="stroke:#000000;stroke-width:0.25;"/>
        <!-- Line -->
        <path d="M1.3312,113.986 L1.5269,114.115 " style="stroke:#000000;stroke-width:0.25;"/>
        <!-- Line -->
        <path d="M1.5269,114.115 L1.7336,114.231 " style="stroke:#000000;stroke-width:0.25;"/>
        <!-- Line -->
        <path d="M1.7336,114.231 L1.9472,114.329 " style="stroke:#000000;stroke-width:0.25;"/>
        <!-- Line -->
        <path d="M1.9472,114.329 L2.1677,114.411 " style="stroke:#000000;stroke-width:0.25;"/>
        <!-- Line -->
        <path d="M2.1677,114.411 L2.395,114.475 " style="stroke:#000000;stroke-width:0.25;"/>
        <!-- Line -->
        <path d="M2.395,114.475 L2.6252,114.522 " style="stroke:#000000;stroke-width:0.25;"/>
        <!-- Line -->
        <path d="M2.6252,114.522 L2.8594,114.548 " style="stroke:#000000;stroke-width:0.25;"/>
        <!-- Line -->
        <path d="M2.8594,114.548 L3.0951,114.558 " style="stroke:#000000;stroke-width:0.25;"/>
        <!-- Line -->
        <path d="M3.0951,114.558 L263.696,114.558 " style="stroke:#000000;stroke-width:0.25;"/>
        <!-- Line -->
        <path d="M9.0854,11.4267 L8.6251,11.1911 " style="stroke:#000000;stroke-width:0.25;"/>
        <!-- Line -->
        <path d="M8.6251,11.1911 L8.26,10.8259 " style="stroke:#000000;stroke-width:0.25;"/>
        <!-- Line -->
        <path d="M8.26,10.8259 L8.0257,10.3656 " style="stroke:#000000;stroke-width:0.25;"/>
        <!-- Line -->
        <path d="M8.0257,10.3656 L7.9458,9.8557 " style="stroke:#000000;stroke-width:0.25;"/>
        <!-- Line -->
        <path d="M7.9458,9.8557 L8.0257,9.3472 " style="stroke:#000000;stroke-width:0.25;"/>
        <!-- Line -->
        <path d="M8.0257,9.3472 L8.26,8.887 " style="stroke:#000000;stroke-width:0.25;"/>
        <!-- Line -->
        <path d="M8.26,8.887 L8.6251,8.5218 " style="stroke:#000000;stroke-width:0.25;"/>
        <!-- Line -->
        <path d="M8.6251,8.5218 L9.0854,8.2875 " style="stroke:#000000;stroke-width:0.25;"/>
        <!-- Line -->
        <path d="M9.0854,8.2875 L9.5953,8.2062 " style="stroke:#000000;stroke-width:0.25;"/>
        <!-- Line -->
        <path d="M9.5953,8.2062 L10.1051,8.2875 " style="stroke:#000000;stroke-width:0.25;"/>
        <!-- Line -->
        <path d="M10.1051,8.2875 L10.564,8.5218 " style="stroke:#000000;stroke-width:0.25;"/>
        <!-- Line -->
        <path d="M10.564,8.5218 L10.9292,8.887 " style="stroke:#000000;stroke-width:0.25;"/>
        <!-- Line -->
        <path d="M10.9292,8.887 L11.1635,9.3472 " style="stroke:#000000;stroke-width:0.25;"/>
        <!-- Line -->
        <path d="M11.1635,9.3472 L11.2448,9.8557 " style="stroke:#000000;stroke-width:0.25;"/>
        <!-- Line -->
        <path d="M11.2448,9.8557 L11.1635,10.3656 " style="stroke:#000000;stroke-width:0.25;"/>
        <!-- Line -->
        <path d="M11.1635,10.3656 L10.9292,10.8259 " style="stroke:#000000;stroke-width:0.25;"/>
        <!-- Line -->
        <path d="M10.9292,10.8259 L10.564,11.1911 " style="stroke:#000000;stroke-width:0.25;"/>
        <!-- Line -->
        <path d="M10.564,11.1911 L10.1051,11.4267 " style="stroke:#000000;stroke-width:0.25;"/>
        <!-- Line -->
        <path d="M10.1051,11.4267 L9.5953,11.5066 " style="stroke:#000000;stroke-width:0.25;"/>
        <!-- Line -->
        <path d="M9.5953,11.5066 L9.0854,11.4267 " style="stroke:#000000;stroke-width:0.25;"/>
        <!-- Line -->
        <path d="M91.6189,11.4267 L91.1585,11.1911 " style="stroke:#000000;stroke-width:0.25;"/>
        <!-- Line -->
        <path d="M91.1585,11.1911 L90.7934,10.8259 " style="stroke:#000000;stroke-width:0.25;"/>
        <!-- Line -->
        <path d="M90.7934,10.8259 L90.5591,10.3656 " style="stroke:#000000;stroke-width:0.25;"/>
        <!-- Line -->
        <path d="M90.5591,10.3656 L90.478,9.8557 " style="stroke:#000000;stroke-width:0.25;"/>
        <!-- Line -->
        <path d="M90.478,9.8557 L90.5591,9.3472 " style="stroke:#000000;stroke-width:0.25;"/>
        <!-- Line -->
        <path d="M90.5591,9.3472 L90.7934,8.887 " style="stroke:#000000;stroke-width:0.25;"/>
        <!-- Line -->
        <path d="M90.7934,8.887 L91.1585,8.5218 " style="stroke:#000000;stroke-width:0.25;"/>
        <!-- Line -->
        <path d="M91.1585,8.5218 L91.6189,8.2875 " style="stroke:#000000;stroke-width:0.25;"/>
        <!-- Line -->
        <path d="M91.6189,8.2875 L92.1286,8.2062 " style="stroke:#000000;stroke-width:0.25;"/>
        <!-- Line -->
        <path d="M92.1286,8.2062 L92.6387,8.2875 " style="stroke:#000000;stroke-width:0.25;"/>
        <!-- Line -->
        <path d="M92.6387,8.2875 L93.0988,8.5218 " style="stroke:#000000;stroke-width:0.25;"/>
        <!-- Line -->
        <path d="M93.0988,8.5218 L93.4642,8.887 " style="stroke:#000000;stroke-width:0.25;"/>
        <!-- Line -->
        <path d="M93.4642,8.887 L93.6971,9.3472 " style="stroke:#000000;stroke-width:0.25;"/>
        <!-- Line -->
        <path d="M93.6971,9.3472 L93.7782,9.8557 " style="stroke:#000000;stroke-width:0.25;"/>
        <!-- Line -->
        <path d="M93.7782,9.8557 L93.6971,10.3656 " style="stroke:#000000;stroke-width:0.25;"/>
        <!-- Line -->
        <path d="M93.6971,10.3656 L93.4642,10.8259 " style="stroke:#000000;stroke-width:0.25;"/>
        <!-- Line -->
        <path d="M93.4642,10.8259 L93.0988,11.1911 " style="stroke:#000000;stroke-width:0.25;"/>
        <!-- Line -->
        <path d="M93.0988,11.1911 L92.6387,11.4267 " style="stroke:#000000;stroke-width:0.25;"/>
        <!-- Line -->
        <path d="M92.6387,11.4267 L92.1286,11.5066 " style="stroke:#000000;stroke-width:0.25;"/>
        <!-- Line -->
        <path d="M92.1286,11.5066 L91.6189,11.4267 " style="stroke:#000000;stroke-width:0.25;"/>
        <!-- Line -->
        <path d="M174.152,11.4267 L173.692,11.1911 " style="stroke:#000000;stroke-width:0.25;"/>
        <!-- Line -->
        <path d="M173.692,11.1911 L173.327,10.8259 " style="stroke:#000000;stroke-width:0.25;"/>
        <!-- Line -->
        <path d="M173.327,10.8259 L173.094,10.3656 " style="stroke:#000000;stroke-width:0.25;"/>
        <!-- Line -->
        <path d="M173.094,10.3656 L173.013,9.8557 " style="stroke:#000000;stroke-width:0.25;"/>
        <!-- Line -->
        <path d="M173.013,9.8557 L173.094,9.3472 " style="stroke:#000000;stroke-width:0.25;"/>
        <!-- Line -->
        <path d="M173.094,9.3472 L173.327,8.887 " style="stroke:#000000;stroke-width:0.25;"/>
        <!-- Line -->
        <path d="M173.327,8.887 L173.692,8.5218 " style="stroke:#000000;stroke-width:0.25;"/>
        <!-- Line -->
        <path d="M173.692,8.5218 L174.152,8.2875 " style="stroke:#000000;stroke-width:0.25;"/>
        <!-- Line -->
        <path d="M174.152,8.2875 L174.662,8.2062 " style="stroke:#000000;stroke-width:0.25;"/>
        <!-- Line -->
        <path d="M174.662,8.2062 L175.172,8.2875 " style="stroke:#000000;stroke-width:0.25;"/>
        <!-- Line -->
        <path d="M175.172,8.2875 L175.632,8.5218 " style="stroke:#000000;stroke-width:0.25;"/>
        <!-- Line -->
        <path d="M175.632,8.5218 L175.998,8.887 " style="stroke:#000000;stroke-width:0.25;"/>
        <!-- Line -->
        <path d="M175.998,8.887 L176.232,9.3472 " style="stroke:#000000;stroke-width:0.25;"/>
        <!-- Line -->
        <path d="M176.232,9.3472 L176.313,9.8557 " style="stroke:#000000;stroke-width:0.25;"/>
        <!-- Line -->
        <path d="M176.313,9.8557 L176.232,10.3656 " style="stroke:#000000;stroke-width:0.25;"/>
        <!-- Line -->
        <path d="M176.232,10.3656 L175.998,10.8259 " style="stroke:#000000;stroke-width:0.25;"/>
        <!-- Line -->
        <path d="M175.998,10.8259 L175.632,11.1911 " style="stroke:#000000;stroke-width:0.25;"/>
        <!-- Line -->
        <path d="M175.632,11.1911 L175.172,11.4267 " style="stroke:#000000;stroke-width:0.25;"/>
        <!-- Line -->
        <path d="M175.172,11.4267 L174.662,11.5066 " style="stroke:#000000;stroke-width:0.25;"/>
        <!-- Line -->
        <path d="M174.662,11.5066 L174.152,11.4267 " style="stroke:#000000;stroke-width:0.25;"/>
        <!-- Line -->
        <path d="M256.686,11.4267 L256.226,11.1911 " style="stroke:#000000;stroke-width:0.25;"/>
        <!-- Line -->
        <path d="M256.226,11.1911 L255.862,10.8259 " style="stroke:#000000;stroke-width:0.25;"/>
        <!-- Line -->
        <path d="M255.862,10.8259 L255.626,10.3656 " style="stroke:#000000;stroke-width:0.25;"/>
        <!-- Line -->
        <path d="M255.626,10.3656 L255.546,9.8557 " style="stroke:#000000;stroke-width:0.25;"/>
        <!-- Line -->
        <path d="M255.546,9.8557 L255.626,9.3472 " style="stroke:#000000;stroke-width:0.25;"/>
        <!-- Line -->
        <path d="M255.626,9.3472 L255.862,8.887 " style="stroke:#000000;stroke-width:0.25;"/>
        <!-- Line -->
        <path d="M255.862,8.887 L256.226,8.5218 " style="stroke:#000000;stroke-width:0.25;"/>
        <!-- Line -->
        <path d="M256.226,8.5218 L256.686,8.2875 " style="stroke:#000000;stroke-width:0.25;"/>
        <!-- Line -->
        <path d="M256.686,8.2875 L257.197,8.2062 " style="stroke:#000000;stroke-width:0.25;"/>
        <!-- Line -->
        <path d="M257.197,8.2062 L257.706,8.2875 " style="stroke:#000000;stroke-width:0.25;"/>
        <!-- Line -->
        <path d="M257.706,8.2875 L258.166,8.5218 " style="stroke:#000000;stroke-width:0.25;"/>
        <!-- Line -->
        <path d="M258.166,8.5218 L258.531,8.887 " style="stroke:#000000;stroke-width:0.25;"/>
        <!-- Line -->
        <path d="M258.531,8.887 L258.765,9.3472 " style="stroke:#000000;stroke-width:0.25;"/>
        <!-- Line -->
        <path d="M258.765,9.3472 L258.846,9.8557 " style="stroke:#000000;stroke-width:0.25;"/>
        <!-- Line -->
        <path d="M258.846,9.8557 L258.765,10.3656 " style="stroke:#000000;stroke-width:0.25;"/>
        <!-- Line -->
        <path d="M258.765,10.3656 L258.531,10.8259 " style="stroke:#000000;stroke-width:0.25;"/>
        <!-- Line -->
        <path d="M258.531,10.8259 L258.166,11.1911 " style="stroke:#000000;stroke-width:0.25;"/>
        <!-- Line -->
        <path d="M258.166,11.1911 L257.706,11.4267 " style="stroke:#000000;stroke-width:0.25;"/>
        <!-- Line -->
        <path d="M257.706,11.4267 L257.197,11.5066 " style="stroke:#000000;stroke-width:0.25;"/>
        <!-- Line -->
        <path d="M257.197,11.5066 L256.686,11.4267 " style="stroke:#000000;stroke-width:0.25;"/>
        <!-- Line -->
        <path d="M19.0955,95.5573 L247.697,95.5573 " style="stroke:#000000;stroke-width:0.25;"/>
        <!-- Line -->
        <path d="M247.697,95.5573 L247.697,19.3559 " style="stroke:#000000;stroke-width:0.25;"/>
        <!-- Line -->
        <path d="M247.697,19.3559 L19.0955,19.3559 " style="stroke:#000000;stroke-width:0.25;"/>
        <!-- Line -->
        <path d="M19.0955,19.3559 L19.0955,95.5573 " style="stroke:#000000;stroke-width:0.25;"/>
        <!-- Line -->
        <path d="M9.0854,106.627 L8.6251,106.393 " style="stroke:#000000;stroke-width:0.25;"/>
        <!-- Line -->
        <path d="M8.6251,106.393 L8.26,106.028 " style="stroke:#000000;stroke-width:0.25;"/>
        <!-- Line -->
        <path d="M8.26,106.028 L8.0257,105.567 " style="stroke:#000000;stroke-width:0.25;"/>
        <!-- Line -->
        <path d="M8.0257,105.567 L7.9458,105.058 " style="stroke:#000000;stroke-width:0.25;"/>
        <!-- Line -->
        <path d="M7.9458,105.058 L8.0257,104.547 " style="stroke:#000000;stroke-width:0.25;"/>
        <!-- Line -->
        <path d="M8.0257,104.547 L8.26,104.089 " style="stroke:#000000;stroke-width:0.25;"/>
        <!-- Line -->
        <path d="M8.26,104.089 L8.6251,103.724 " style="stroke:#000000;stroke-width:0.25;"/>
        <!-- Line -->
        <path d="M8.6251,103.724 L9.0854,103.489 " style="stroke:#000000;stroke-width:0.25;"/>
        <!-- Line -->
        <path d="M9.0854,103.489 L9.5953,103.408 " style="stroke:#000000;stroke-width:0.25;"/>
        <!-- Line -->
        <path d="M9.5953,103.408 L10.1051,103.489 " style="stroke:#000000;stroke-width:0.25;"/>
        <!-- Line -->
        <path d="M10.1051,103.489 L10.564,103.724 " style="stroke:#000000;stroke-width:0.25;"/>
        <!-- Line -->
        <path d="M10.564,103.724 L10.9292,104.089 " style="stroke:#000000;stroke-width:0.25;"/>
        <!-- Line -->
        <path d="M10.9292,104.089 L11.1635,104.547 " style="stroke:#000000;stroke-width:0.25;"/>
        <!-- Line -->
        <path d="M11.1635,104.547 L11.2448,105.058 " style="stroke:#000000;stroke-width:0.25;"/>
        <!-- Line -->
        <path d="M11.2448,105.058 L11.1635,105.567 " style="stroke:#000000;stroke-width:0.25;"/>
        <!-- Line -->
        <path d="M11.1635,105.567 L10.9292,106.028 " style="stroke:#000000;stroke-width:0.25;"/>
        <!-- Line -->
        <path d="M10.9292,106.028 L10.564,106.393 " style="stroke:#000000;stroke-width:0.25;"/>
        <!-- Line -->
        <path d="M10.564,106.393 L10.1051,106.627 " style="stroke:#000000;stroke-width:0.25;"/>
        <!-- Line -->
        <path d="M10.1051,106.627 L9.5953,106.707 " style="stroke:#000000;stroke-width:0.25;"/>
        <!-- Line -->
        <path d="M9.5953,106.707 L9.0854,106.627 " style="stroke:#000000;stroke-width:0.25;"/>
        <!-- Line -->
        <path d="M256.686,106.627 L256.226,106.393 " style="stroke:#000000;stroke-width:0.25;"/>
        <!-- Line -->
        <path d="M256.226,106.393 L255.862,106.028 " style="stroke:#000000;stroke-width:0.25;"/>
        <!-- Line -->
        <path d="M255.862,106.028 L255.626,105.567 " style="stroke:#000000;stroke-width:0.25;"/>
        <!-- Line -->
        <path d="M255.626,105.567 L255.546,105.058 " style="stroke:#000000;stroke-width:0.25;"/>
        <!-- Line -->
        <path d="M255.546,105.058 L255.626,104.547 " style="stroke:#000000;stroke-width:0.25;"/>
        <!-- Line -->
        <path d="M255.626,104.547 L255.862,104.089 " style="stroke:#000000;stroke-width:0.25;"/>
        <!-- Line -->
        <path d="M255.862,104.089 L256.226,103.724 " style="stroke:#000000;stroke-width:0.25;"/>
        <!-- Line -->
        <path d="M256.226,103.724 L256.686,103.489 " style="stroke:#000000;stroke-width:0.25;"/>
        <!-- Line -->
        <path d="M256.686,103.489 L257.197,103.408 " style="stroke:#000000;stroke-width:0.25;"/>
        <!-- Line -->
        <path d="M257.197,103.408 L257.706,103.489 " style="stroke:#000000;stroke-width:0.25;"/>
        <!-- Line -->
        <path d="M257.706,103.489 L258.166,103.724 " style="stroke:#000000;stroke-width:0.25;"/>
        <!-- Line -->
        <path d="M258.166,103.724 L258.531,104.089 " style="stroke:#000000;stroke-width:0.25;"/>
        <!-- Line -->
        <path d="M258.531,104.089 L258.765,104.547 " style="stroke:#000000;stroke-width:0.25;"/>
        <!-- Line -->
        <path d="M258.765,104.547 L258.846,105.058 " style="stroke:#000000;stroke-width:0.25;"/>
        <!-- Line -->
        <path d="M258.846,105.058 L258.765,105.567 " style="stroke:#000000;stroke-width:0.25;"/>
        <!-- Line -->
        <path d="M258.765,105.567 L258.531,106.028 " style="stroke:#000000;stroke-width:0.25;"/>
        <!-- Line -->
        <path d="M258.531,106.028 L258.166,106.393 " style="stroke:#000000;stroke-width:0.25;"/>
        <!-- Line -->
        <path d="M258.166,106.393 L257.706,106.627 " style="stroke:#000000;stroke-width:0.25;"/>
        <!-- Line -->
        <path d="M257.706,106.627 L257.197,106.707 " style="stroke:#000000;stroke-width:0.25;"/>
        <!-- Line -->
        <path d="M257.197,106.707 L256.686,106.627 " style="stroke:#000000;stroke-width:0.25;"/>
        <!-- Line -->
        <path d="M174.152,106.627 L173.692,106.393 " style="stroke:#000000;stroke-width:0.25;"/>
        <!-- Line -->
        <path d="M173.692,106.393 L173.327,106.028 " style="stroke:#000000;stroke-width:0.25;"/>
        <!-- Line -->
        <path d="M173.327,106.028 L173.094,105.567 " style="stroke:#000000;stroke-width:0.25;"/>
        <!-- Line -->
        <path d="M173.094,105.567 L173.013,105.058 " style="stroke:#000000;stroke-width:0.25;"/>
        <!-- Line -->
        <path d="M173.013,105.058 L173.094,104.547 " style="stroke:#000000;stroke-width:0.25;"/>
        <!-- Line -->
        <path d="M173.094,104.547 L173.327,104.089 " style="stroke:#000000;stroke-width:0.25;"/>
        <!-- Line -->
        <path d="M173.327,104.089 L173.692,103.724 " style="stroke:#000000;stroke-width:0.25;"/>
        <!-- Line -->
        <path d="M173.692,103.724 L174.152,103.489 " style="stroke:#000000;stroke-width:0.25;"/>
        <!-- Line -->
        <path d="M174.152,103.489 L174.662,103.408 " style="stroke:#000000;stroke-width:0.25;"/>
        <!-- Line -->
        <path d="M174.662,103.408 L175.172,103.489 " style="stroke:#000000;stroke-width:0.25;"/>
        <!-- Line -->
        <path d="M175.172,103.489 L175.632,103.724 " style="stroke:#000000;stroke-width:0.25;"/>
        <!-- Line -->
        <path d="M175.632,103.724 L175.998,104.089 " style="stroke:#000000;stroke-width:0.25;"/>
        <!-- Line -->
        <path d="M175.998,104.089 L176.232,104.547 " style="stroke:#000000;stroke-width:0.25;"/>
        <!-- Line -->
        <path d="M176.232,104.547 L176.313,105.058 " style="stroke:#000000;stroke-width:0.25;"/>
        <!-- Line -->
        <path d="M176.313,105.058 L176.232,105.567 " style="stroke:#000000;stroke-width:0.25;"/>
        <!-- Line -->
        <path d="M176.232,105.567 L175.998,106.028 " style="stroke:#000000;stroke-width:0.25;"/>
        <!-- Line -->
        <path d="M175.998,106.028 L175.632,106.393 " style="stroke:#000000;stroke-width:0.25;"/>
        <!-- Line -->
        <path d="M175.632,106.393 L175.172,106.627 " style="stroke:#000000;stroke-width:0.25;"/>
        <!-- Line -->
        <path d="M175.172,106.627 L174.662,106.707 " style="stroke:#000000;stroke-width:0.25;"/>
        <!-- Line -->
        <path d="M174.662,106.707 L174.152,106.627 " style="stroke:#000000;stroke-width:0.25;"/>
        <!-- Line -->
        <path d="M91.6189,106.627 L91.1585,106.393 " style="stroke:#000000;stroke-width:0.25;"/>
        <!-- Line -->
        <path d="M91.1585,106.393 L90.7934,106.028 " style="stroke:#000000;stroke-width:0.25;"/>
        <!-- Line -->
        <path d="M90.7934,106.028 L90.5591,105.567 " style="stroke:#000000;stroke-width:0.25;"/>
        <!-- Line -->
        <path d="M90.5591,105.567 L90.478,105.058 " style="stroke:#000000;stroke-width:0.25;"/>
        <!-- Line -->
        <path d="M90.478,105.058 L90.5591,104.547 " style="stroke:#000000;stroke-width:0.25;"/>
        <!-- Line -->
        <path d="M90.5591,104.547 L90.7934,104.089 " style="stroke:#000000;stroke-width:0.25;"/>
        <!-- Line -->
        <path d="M90.7934,104.089 L91.1585,103.724 " style="stroke:#000000;stroke-width:0.25;"/>
        <!-- Line -->
        <path d="M91.1585,103.724 L91.6189,103.489 " style="stroke:#000000;stroke-width:0.25;"/>
        <!-- Line -->
        <path d="M91.6189,103.489 L92.1286,103.408 " style="stroke:#000000;stroke-width:0.25;"/>
        <!-- Line -->
        <path d="M92.1286,103.408 L92.6387,103.489 " style="stroke:#000000;stroke-width:0.25;"/>
        <!-- Line -->
        <path d="M92.6387,103.489 L93.0988,103.724 " style="stroke:#000000;stroke-width:0.25;"/>
        <!-- Line -->
        <path d="M93.0988,103.724 L93.4642,104.089 " style="stroke:#000000;stroke-width:0.25;"/>
        <!-- Line -->
        <path d="M93.4642,104.089 L93.6971,104.547 " style="stroke:#000000;stroke-width:0.25;"/>
        <!-- Line -->
        <path d="M93.6971,104.547 L93.7782,105.058 " style="stroke:#000000;stroke-width:0.25;"/>
        <!-- Line -->
        <path d="M93.7782,105.058 L93.6971,105.567 " style="stroke:#000000;stroke-width:0.25;"/>
        <!-- Line -->
        <path d="M93.6971,105.567 L93.4642,106.028 " style="stroke:#000000;stroke-width:0.25;"/>
        <!-- Line -->
        <path d="M93.4642,106.028 L93.0988,106.393 " style="stroke:#000000;stroke-width:0.25;"/>
        <!-- Line -->
        <path d="M93.0988,106.393 L92.6387,106.627 " style="stroke:#000000;stroke-width:0.25;"/>
        <!-- Line -->
        <path d="M92.6387,106.627 L92.1286,106.707 " style="stroke:#000000;stroke-width:0.25;"/>
        <!-- Line -->
        <path d="M92.1286,106.707 L91.6189,106.627 " style="stroke:#000000;stroke-width:0.25;"/>
    </g>
</svg>
