  0
SECTION
  2
HEADER
  9
$ACADVER
  1
AC1009
  9
$EXTMIN
 10
0.0
 20
0.0
 30
0.0
  9
$EXTMAX
 10
1000.0
 20
1000.0
 30
0.0
  9
$FILLMODE
 70
 0
  9
$SPLFRAME
 70
 1
  0
ENDSEC
  0
SECTION
  2
TABLES
  0
TABLE
  2
LAYER
 70
1
  0
LAYER
  2
0
 70
     0
 62
     7
  6
CONTINUOUS
  0
ENDTAB
  0
ENDSEC
  0
SECTION
  2
ENTITIES
  0
LINE
  8
0
 62
     0
 10
263.696
 20
114.558
 30
0.0
 11
263.931
 21
114.548
 31
0.0
  0
LINE
  8
0
 62
     0
 10
263.931
 20
114.548
 30
0.0
 11
264.166
 21
114.522
 31
0.0
  0
LINE
  8
0
 62
     0
 10
264.166
 20
114.522
 30
0.0
 11
264.396
 21
114.475
 31
0.0
  0
LINE
  8
0
 62
     0
 10
264.396
 20
114.475
 30
0.0
 11
264.623
 21
114.411
 31
0.0
  0
LINE
  8
0
 62
     0
 10
264.623
 20
114.411
 30
0.0
 11
264.845
 21
114.329
 31
0.0
  0
LINE
  8
0
 62
     0
 10
264.845
 20
114.329
 30
0.0
 11
265.057
 21
114.231
 31
0.0
  0
LINE
  8
0
 62
     0
 10
265.057
 20
114.231
 30
0.0
 11
265.264
 21
114.115
 31
0.0
  0
LINE
  8
0
 62
     0
 10
265.264
 20
114.115
 30
0.0
 11
265.46
 21
113.986
 31
0.0
  0
LINE
  8
0
 62
     0
 10
265.46
 20
113.986
 30
0.0
 11
265.644
 21
113.84
 31
0.0
  0
LINE
  8
0
 62
     0
 10
265.644
 20
113.84
 30
0.0
 11
265.818
 21
113.68
 31
0.0
  0
LINE
  8
0
 62
     0
 10
265.818
 20
113.68
 30
0.0
 11
265.978
 21
113.506
 31
0.0
  0
LINE
  8
0
 62
     0
 10
265.978
 20
113.506
 30
0.0
 11
266.124
 21
113.322
 31
0.0
  0
LINE
  8
0
 62
     0
 10
266.124
 20
113.322
 30
0.0
 11
266.253
 21
113.126
 31
0.0
  0
LINE
  8
0
 62
     0
 10
266.253
 20
113.126
 30
0.0
 11
266.369
 21
112.919
 31
0.0
  0
LINE
  8
0
 62
     0
 10
266.369
 20
112.919
 30
0.0
 11
266.467
 21
112.705
 31
0.0
  0
LINE
  8
0
 62
     0
 10
266.467
 20
112.705
 30
0.0
 11
266.55
 21
112.485
 31
0.0
  0
LINE
  8
0
 62
     0
 10
266.55
 20
112.485
 30
0.0
 11
266.613
 21
112.258
 31
0.0
  0
LINE
  8
0
 62
     0
 10
266.613
 20
112.258
 30
0.0
 11
266.66
 21
112.028
 31
0.0
  0
LINE
  8
0
 62
     0
 10
266.66
 20
112.028
 30
0.0
 11
266.686
 21
111.794
 31
0.0
  0
LINE
  8
0
 62
     0
 10
266.686
 20
111.794
 30
0.0
 11
266.696
 21
111.558
 31
0.0
  0
LINE
  8
0
 62
     0
 10
266.696
 20
111.558
 30
0.0
 11
266.696
 21
3.3569
 31
0.0
  0
LINE
  8
0
 62
     0
 10
266.696
 20
3.3569
 30
0.0
 11
266.686
 21
3.12126
 31
0.0
  0
LINE
  8
0
 62
     0
 10
266.686
 20
3.12126
 30
0.0
 11
266.66
 21
2.88699
 31
0.0
  0
LINE
  8
0
 62
     0
 10
266.66
 20
2.88699
 30
0.0
 11
266.613
 21
2.65686
 31
0.0
  0
LINE
  8
0
 62
     0
 10
266.613
 20
2.65686
 30
0.0
 11
266.55
 21
2.42948
 31
0.0
  0
LINE
  8
0
 62
     0
 10
266.55
 20
2.42948
 30
0.0
 11
266.467
 21
2.20762
 31
0.0
  0
LINE
  8
0
 62
     0
 10
266.467
 20
2.20762
 30
0.0
 11
266.369
 21
1.9954
 31
0.0
  0
LINE
  8
0
 62
     0
 10
266.369
 20
1.9954
 30
0.0
 11
266.253
 21
1.78869
 31
0.0
  0
LINE
  8
0
 62
     0
 10
266.253
 20
1.78869
 30
0.0
 11
266.124
 21
1.59301
 31
0.0
  0
LINE
  8
0
 62
     0
 10
266.124
 20
1.59301
 30
0.0
 11
265.978
 21
1.40836
 31
0.0
  0
LINE
  8
0
 62
     0
 10
265.978
 20
1.40836
 30
0.0
 11
265.818
 21
1.23472
 31
0.0
  0
LINE
  8
0
 62
     0
 10
265.818
 20
1.23472
 30
0.0
 11
265.644
 21
1.07487
 31
0.0
  0
LINE
  8
0
 62
     0
 10
265.644
 20
1.07487
 30
0.0
 11
265.46
 21
0.928797
 31
0.0
  0
LINE
  8
0
 62
     0
 10
265.46
 20
0.928797
 30
0.0
 11
265.264
 21
0.799264
 31
0.0
  0
LINE
  8
0
 62
     0
 10
265.264
 20
0.799264
 30
0.0
 11
265.057
 21
0.683507
 31
0.0
  0
LINE
  8
0
 62
     0
 10
265.057
 20
0.683507
 30
0.0
 11
264.845
 21
0.585668
 31
0.0
  0
LINE
  8
0
 62
     0
 10
264.845
 20
0.585668
 30
0.0
 11
264.623
 21
0.502984
 31
0.0
  0
LINE
  8
0
 62
     0
 10
264.623
 20
0.502984
 30
0.0
 11
264.396
 21
0.439593
 31
0.0
  0
LINE
  8
0
 62
     0
 10
264.396
 20
0.439593
 30
0.0
 11
264.166
 21
0.39274
 31
0.0
  0
LINE
  8
0
 62
     0
 10
264.166
 20
0.39274
 30
0.0
 11
263.931
 21
0.366557
 31
0.0
  0
LINE
  8
0
 62
     0
 10
263.931
 20
0.366557
 30
0.0
 11
263.696
 21
0.356912
 31
0.0
  0
LINE
  8
0
 62
     0
 10
263.696
 20
0.356912
 30
0.0
 11
3.09507
 21
0.356912
 31
0.0
  0
LINE
  8
0
 62
     0
 10
3.09507
 20
0.356912
 30
0.0
 11
2.85943
 21
0.366557
 31
0.0
  0
LINE
  8
0
 62
     0
 10
2.85943
 20
0.366557
 30
0.0
 11
2.62516
 21
0.39274
 31
0.0
  0
LINE
  8
0
 62
     0
 10
2.62516
 20
0.39274
 30
0.0
 11
2.39503
 21
0.439593
 31
0.0
  0
LINE
  8
0
 62
     0
 10
2.39503
 20
0.439593
 30
0.0
 11
2.16765
 21
0.502984
 31
0.0
  0
LINE
  8
0
 62
     0
 10
2.16765
 20
0.502984
 30
0.0
 11
1.94717
 21
0.585668
 31
0.0
  0
LINE
  8
0
 62
     0
 10
1.94717
 20
0.585668
 30
0.0
 11
1.73357
 21
0.683507
 31
0.0
  0
LINE
  8
0
 62
     0
 10
1.73357
 20
0.683507
 30
0.0
 11
1.52687
 21
0.799264
 31
0.0
  0
LINE
  8
0
 62
     0
 10
1.52687
 20
0.799264
 30
0.0
 11
1.33119
 21
0.928797
 31
0.0
  0
LINE
  8
0
 62
     0
 10
1.33119
 20
0.928797
 30
0.0
 11
1.14653
 21
1.07487
 31
0.0
  0
LINE
  8
0
 62
     0
 10
1.14653
 20
1.07487
 30
0.0
 11
0.972894
 21
1.23472
 31
0.0
  0
LINE
  8
0
 62
     0
 10
0.972894
 20
1.23472
 30
0.0
 11
0.813043
 21
1.40836
 31
0.0
  0
LINE
  8
0
 62
     0
 10
0.813043
 20
1.40836
 30
0.0
 11
0.666972
 21
1.59301
 31
0.0
  0
LINE
  8
0
 62
     0
 10
0.666972
 20
1.59301
 30
0.0
 11
0.537436
 21
1.78869
 31
0.0
  0
LINE
  8
0
 62
     0
 10
0.537436
 20
1.78869
 30
0.0
 11
0.421679
 21
1.9954
 31
0.0
  0
LINE
  8
0
 62
     0
 10
0.421679
 20
1.9954
 30
0.0
 11
0.323839
 21
2.20762
 31
0.0
  0
LINE
  8
0
 62
     0
 10
0.323839
 20
2.20762
 30
0.0
 11
0.241157
 21
2.42948
 31
0.0
  0
LINE
  8
0
 62
     0
 10
0.241157
 20
2.42948
 30
0.0
 11
0.177767
 21
2.65686
 31
0.0
  0
LINE
  8
0
 62
     0
 10
0.177767
 20
2.65686
 30
0.0
 11
0.130914
 21
2.88699
 31
0.0
  0
LINE
  8
0
 62
     0
 10
0.130914
 20
2.88699
 30
0.0
 11
0.104731
 21
3.12126
 31
0.0
  0
LINE
  8
0
 62
     0
 10
0.104731
 20
3.12126
 30
0.0
 11
0.0950846
 21
3.3569
 31
0.0
  0
LINE
  8
0
 62
     0
 10
0.0950846
 20
3.3569
 30
0.0
 11
0.0950846
 21
111.558
 31
0.0
  0
LINE
  8
0
 62
     0
 10
0.0950846
 20
111.558
 30
0.0
 11
0.104731
 21
111.794
 31
0.0
  0
LINE
  8
0
 62
     0
 10
0.104731
 20
111.794
 30
0.0
 11
0.130914
 21
112.028
 31
0.0
  0
LINE
  8
0
 62
     0
 10
0.130914
 20
112.028
 30
0.0
 11
0.177767
 21
112.258
 31
0.0
  0
LINE
  8
0
 62
     0
 10
0.177767
 20
112.258
 30
0.0
 11
0.241157
 21
112.485
 31
0.0
  0
LINE
  8
0
 62
     0
 10
0.241157
 20
112.485
 30
0.0
 11
0.323839
 21
112.705
 31
0.0
  0
LINE
  8
0
 62
     0
 10
0.323839
 20
112.705
 30
0.0
 11
0.421679
 21
112.919
 31
0.0
  0
LINE
  8
0
 62
     0
 10
0.421679
 20
112.919
 30
0.0
 11
0.537436
 21
113.126
 31
0.0
  0
LINE
  8
0
 62
     0
 10
0.537436
 20
113.126
 30
0.0
 11
0.666972
 21
113.322
 31
0.0
  0
LINE
  8
0
 62
     0
 10
0.666972
 20
113.322
 30
0.0
 11
0.813043
 21
113.506
 31
0.0
  0
LINE
  8
0
 62
     0
 10
0.813043
 20
113.506
 30
0.0
 11
0.972894
 21
113.68
 31
0.0
  0
LINE
  8
0
 62
     0
 10
0.972894
 20
113.68
 30
0.0
 11
1.14653
 21
113.84
 31
0.0
  0
LINE
  8
0
 62
     0
 10
1.14653
 20
113.84
 30
0.0
 11
1.33119
 21
113.986
 31
0.0
  0
LINE
  8
0
 62
     0
 10
1.33119
 20
113.986
 30
0.0
 11
1.52687
 21
114.115
 31
0.0
  0
LINE
  8
0
 62
     0
 10
1.52687
 20
114.115
 30
0.0
 11
1.73357
 21
114.231
 31
0.0
  0
LINE
  8
0
 62
     0
 10
1.73357
 20
114.231
 30
0.0
 11
1.94717
 21
114.329
 31
0.0
  0
LINE
  8
0
 62
     0
 10
1.94717
 20
114.329
 30
0.0
 11
2.16765
 21
114.411
 31
0.0
  0
LINE
  8
0
 62
     0
 10
2.16765
 20
114.411
 30
0.0
 11
2.39503
 21
114.475
 31
0.0
  0
LINE
  8
0
 62
     0
 10
2.39503
 20
114.475
 30
0.0
 11
2.62516
 21
114.522
 31
0.0
  0
LINE
  8
0
 62
     0
 10
2.62516
 20
114.522
 30
0.0
 11
2.85943
 21
114.548
 31
0.0
  0
LINE
  8
0
 62
     0
 10
2.85943
 20
114.548
 30
0.0
 11
3.09507
 21
114.558
 31
0.0
  0
LINE
  8
0
 62
     0
 10
3.09507
 20
114.558
 30
0.0
 11
263.696
 21
114.558
 31
0.0
  0
LINE
  8
0
 62
     0
 10
9.0854
 20
11.4267
 30
0.0
 11
8.62513
 21
11.1911
 31
0.0
  0
LINE
  8
0
 62
     0
 10
8.62513
 20
11.1911
 30
0.0
 11
8.25997
 21
10.8259
 31
0.0
  0
LINE
  8
0
 62
     0
 10
8.25997
 20
10.8259
 30
0.0
 11
8.02569
 21
10.3656
 31
0.0
  0
LINE
  8
0
 62
     0
 10
8.02569
 20
10.3656
 30
0.0
 11
7.94575
 21
9.85573
 31
0.0
  0
LINE
  8
0
 62
     0
 10
7.94575
 20
9.85573
 30
0.0
 11
8.02569
 21
9.34724
 31
0.0
  0
LINE
  8
0
 62
     0
 10
8.02569
 20
9.34724
 30
0.0
 11
8.25997
 21
8.88697
 31
0.0
  0
LINE
  8
0
 62
     0
 10
8.25997
 20
8.88697
 30
0.0
 11
8.62513
 21
8.52181
 31
0.0
  0
LINE
  8
0
 62
     0
 10
8.62513
 20
8.52181
 30
0.0
 11
9.0854
 21
8.28753
 31
0.0
  0
LINE
  8
0
 62
     0
 10
9.0854
 20
8.28753
 30
0.0
 11
9.59527
 21
8.20621
 31
0.0
  0
LINE
  8
0
 62
     0
 10
9.59527
 20
8.20621
 30
0.0
 11
10.1051
 21
8.28753
 31
0.0
  0
LINE
  8
0
 62
     0
 10
10.1051
 20
8.28753
 30
0.0
 11
10.564
 21
8.52181
 31
0.0
  0
LINE
  8
0
 62
     0
 10
10.564
 20
8.52181
 30
0.0
 11
10.9292
 21
8.88697
 31
0.0
  0
LINE
  8
0
 62
     0
 10
10.9292
 20
8.88697
 30
0.0
 11
11.1635
 21
9.34724
 31
0.0
  0
LINE
  8
0
 62
     0
 10
11.1635
 20
9.34724
 30
0.0
 11
11.2448
 21
9.85573
 31
0.0
  0
LINE
  8
0
 62
     0
 10
11.2448
 20
9.85573
 30
0.0
 11
11.1635
 21
10.3656
 31
0.0
  0
LINE
  8
0
 62
     0
 10
11.1635
 20
10.3656
 30
0.0
 11
10.9292
 21
10.8259
 31
0.0
  0
LINE
  8
0
 62
     0
 10
10.9292
 20
10.8259
 30
0.0
 11
10.564
 21
11.1911
 31
0.0
  0
LINE
  8
0
 62
     0
 10
10.564
 20
11.1911
 30
0.0
 11
10.1051
 21
11.4267
 31
0.0
  0
LINE
  8
0
 62
     0
 10
10.1051
 20
11.4267
 30
0.0
 11
9.59527
 21
11.5066
 31
0.0
  0
LINE
  8
0
 62
     0
 10
9.59527
 20
11.5066
 30
0.0
 11
9.0854
 21
11.4267
 31
0.0
  0
LINE
  8
0
 62
     0
 10
91.6189
 20
11.4267
 30
0.0
 11
91.1585
 21
11.1911
 31
0.0
  0
LINE
  8
0
 62
     0
 10
91.1585
 20
11.1911
 30
0.0
 11
90.7934
 21
10.8259
 31
0.0
  0
LINE
  8
0
 62
     0
 10
90.7934
 20
10.8259
 30
0.0
 11
90.5591
 21
10.3656
 31
0.0
  0
LINE
  8
0
 62
     0
 10
90.5591
 20
10.3656
 30
0.0
 11
90.478
 21
9.85573
 31
0.0
  0
LINE
  8
0
 62
     0
 10
90.478
 20
9.85573
 30
0.0
 11
90.5591
 21
9.34724
 31
0.0
  0
LINE
  8
0
 62
     0
 10
90.5591
 20
9.34724
 30
0.0
 11
90.7934
 21
8.88697
 31
0.0
  0
LINE
  8
0
 62
     0
 10
90.7934
 20
8.88697
 30
0.0
 11
91.1585
 21
8.52181
 31
0.0
  0
LINE
  8
0
 62
     0
 10
91.1585
 20
8.52181
 30
0.0
 11
91.6189
 21
8.28753
 31
0.0
  0
LINE
  8
0
 62
     0
 10
91.6189
 20
8.28753
 30
0.0
 11
92.1286
 21
8.20621
 31
0.0
  0
LINE
  8
0
 62
     0
 10
92.1286
 20
8.20621
 30
0.0
 11
92.6387
 21
8.28753
 31
0.0
  0
LINE
  8
0
 62
     0
 10
92.6387
 20
8.28753
 30
0.0
 11
93.0988
 21
8.52181
 31
0.0
  0
LINE
  8
0
 62
     0
 10
93.0988
 20
8.52181
 30
0.0
 11
93.4642
 21
8.88697
 31
0.0
  0
LINE
  8
0
 62
     0
 10
93.4642
 20
8.88697
 30
0.0
 11
93.6971
 21
9.34724
 31
0.0
  0
LINE
  8
0
 62
     0
 10
93.6971
 20
9.34724
 30
0.0
 11
93.7782
 21
9.85573
 31
0.0
  0
LINE
  8
0
 62
     0
 10
93.7782
 20
9.85573
 30
0.0
 11
93.6971
 21
10.3656
 31
0.0
  0
LINE
  8
0
 62
     0
 10
93.6971
 20
10.3656
 30
0.0
 11
93.4642
 21
10.8259
 31
0.0
  0
LINE
  8
0
 62
     0
 10
93.4642
 20
10.8259
 30
0.0
 11
93.0988
 21
11.1911
 31
0.0
  0
LINE
  8
0
 62
     0
 10
93.0988
 20
11.1911
 30
0.0
 11
92.6387
 21
11.4267
 31
0.0
  0
LINE
  8
0
 62
     0
 10
92.6387
 20
11.4267
 30
0.0
 11
92.1286
 21
11.5066
 31
0.0
  0
LINE
  8
0
 62
     0
 10
92.1286
 20
11.5066
 30
0.0
 11
91.6189
 21
11.4267
 31
0.0
  0
LINE
  8
0
 62
     0
 10
174.152
 20
11.4267
 30
0.0
 11
173.692
 21
11.1911
 31
0.0
  0
LINE
  8
0
 62
     0
 10
173.692
 20
11.1911
 30
0.0
 11
173.327
 21
10.8259
 31
0.0
  0
LINE
  8
0
 62
     0
 10
173.327
 20
10.8259
 30
0.0
 11
173.094
 21
10.3656
 31
0.0
  0
LINE
  8
0
 62
     0
 10
173.094
 20
10.3656
 30
0.0
 11
173.013
 21
9.85573
 31
0.0
  0
LINE
  8
0
 62
     0
 10
173.013
 20
9.85573
 30
0.0
 11
173.094
 21
9.34724
 31
0.0
  0
LINE
  8
0
 62
     0
 10
173.094
 20
9.34724
 30
0.0
 11
173.327
 21
8.88697
 31
0.0
  0
LINE
  8
0
 62
     0
 10
173.327
 20
8.88697
 30
0.0
 11
173.692
 21
8.52181
 31
0.0
  0
LINE
  8
0
 62
     0
 10
173.692
 20
8.52181
 30
0.0
 11
174.152
 21
8.28753
 31
0.0
  0
LINE
  8
0
 62
     0
 10
174.152
 20
8.28753
 30
0.0
 11
174.662
 21
8.20621
 31
0.0
  0
LINE
  8
0
 62
     0
 10
174.662
 20
8.20621
 30
0.0
 11
175.172
 21
8.28753
 31
0.0
  0
LINE
  8
0
 62
     0
 10
175.172
 20
8.28753
 30
0.0
 11
175.632
 21
8.52181
 31
0.0
  0
LINE
  8
0
 62
     0
 10
175.632
 20
8.52181
 30
0.0
 11
175.998
 21
8.88697
 31
0.0
  0
LINE
  8
0
 62
     0
 10
175.998
 20
8.88697
 30
0.0
 11
176.232
 21
9.34724
 31
0.0
  0
LINE
  8
0
 62
     0
 10
176.232
 20
9.34724
 30
0.0
 11
176.313
 21
9.85573
 31
0.0
  0
LINE
  8
0
 62
     0
 10
176.313
 20
9.85573
 30
0.0
 11
176.232
 21
10.3656
 31
0.0
  0
LINE
  8
0
 62
     0
 10
176.232
 20
10.3656
 30
0.0
 11
175.998
 21
10.8259
 31
0.0
  0
LINE
  8
0
 62
     0
 10
175.998
 20
10.8259
 30
0.0
 11
175.632
 21
11.1911
 31
0.0
  0
LINE
  8
0
 62
     0
 10
175.632
 20
11.1911
 30
0.0
 11
175.172
 21
11.4267
 31
0.0
  0
LINE
  8
0
 62
     0
 10
175.172
 20
11.4267
 30
0.0
 11
174.662
 21
11.5066
 31
0.0
  0
LINE
  8
0
 62
     0
 10
174.662
 20
11.5066
 30
0.0
 11
174.152
 21
11.4267
 31
0.0
  0
LINE
  8
0
 62
     0
 10
256.686
 20
11.4267
 30
0.0
 11
256.226
 21
11.1911
 31
0.0
  0
LINE
  8
0
 62
     0
 10
256.226
 20
11.1911
 30
0.0
 11
255.862
 21
10.8259
 31
0.0
  0
LINE
  8
0
 62
     0
 10
255.862
 20
10.8259
 30
0.0
 11
255.626
 21
10.3656
 31
0.0
  0
LINE
  8
0
 62
     0
 10
255.626
 20
10.3656
 30
0.0
 11
255.546
 21
9.85573
 31
0.0
  0
LINE
  8
0
 62
     0
 10
255.546
 20
9.85573
 30
0.0
 11
255.626
 21
9.34724
 31
0.0
  0
LINE
  8
0
 62
     0
 10
255.626
 20
9.34724
 30
0.0
 11
255.862
 21
8.88697
 31
0.0
  0
LINE
  8
0
 62
     0
 10
255.862
 20
8.88697
 30
0.0
 11
256.226
 21
8.52181
 31
0.0
  0
LINE
  8
0
 62
     0
 10
256.226
 20
8.52181
 30
0.0
 11
256.686
 21
8.28753
 31
0.0
  0
LINE
  8
0
 62
     0
 10
256.686
 20
8.28753
 30
0.0
 11
257.197
 21
8.20621
 31
0.0
  0
LINE
  8
0
 62
     0
 10
257.197
 20
8.20621
 30
0.0
 11
257.706
 21
8.28753
 31
0.0
  0
LINE
  8
0
 62
     0
 10
257.706
 20
8.28753
 30
0.0
 11
258.166
 21
8.52181
 31
0.0
  0
LINE
  8
0
 62
     0
 10
258.166
 20
8.52181
 30
0.0
 11
258.531
 21
8.88697
 31
0.0
  0
LINE
  8
0
 62
     0
 10
258.531
 20
8.88697
 30
0.0
 11
258.765
 21
9.34724
 31
0.0
  0
LINE
  8
0
 62
     0
 10
258.765
 20
9.34724
 30
0.0
 11
258.846
 21
9.85573
 31
0.0
  0
LINE
  8
0
 62
     0
 10
258.846
 20
9.85573
 30
0.0
 11
258.765
 21
10.3656
 31
0.0
  0
LINE
  8
0
 62
     0
 10
258.765
 20
10.3656
 30
0.0
 11
258.531
 21
10.8259
 31
0.0
  0
LINE
  8
0
 62
     0
 10
258.531
 20
10.8259
 30
0.0
 11
258.166
 21
11.1911
 31
0.0
  0
LINE
  8
0
 62
     0
 10
258.166
 20
11.1911
 30
0.0
 11
257.706
 21
11.4267
 31
0.0
  0
LINE
  8
0
 62
     0
 10
257.706
 20
11.4267
 30
0.0
 11
257.197
 21
11.5066
 31
0.0
  0
LINE
  8
0
 62
     0
 10
257.197
 20
11.5066
 30
0.0
 11
256.686
 21
11.4267
 31
0.0
  0
LINE
  8
0
 62
     0
 10
9.0854
 20
106.627
 30
0.0
 11
8.62513
 21
106.393
 31
0.0
  0
LINE
  8
0
 62
     0
 10
8.62513
 20
106.393
 30
0.0
 11
8.25997
 21
106.028
 31
0.0
  0
LINE
  8
0
 62
     0
 10
8.25997
 20
106.028
 30
0.0
 11
8.02569
 21
105.567
 31
0.0
  0
LINE
  8
0
 62
     0
 10
8.02569
 20
105.567
 30
0.0
 11
7.94575
 21
105.058
 31
0.0
  0
LINE
  8
0
 62
     0
 10
7.94575
 20
105.058
 30
0.0
 11
8.02569
 21
104.547
 31
0.0
  0
LINE
  8
0
 62
     0
 10
8.02569
 20
104.547
 30
0.0
 11
8.25997
 21
104.089
 31
0.0
  0
LINE
  8
0
 62
     0
 10
8.25997
 20
104.089
 30
0.0
 11
8.62513
 21
103.724
 31
0.0
  0
LINE
  8
0
 62
     0
 10
8.62513
 20
103.724
 30
0.0
 11
9.0854
 21
103.489
 31
0.0
  0
LINE
  8
0
 62
     0
 10
9.0854
 20
103.489
 30
0.0
 11
9.59527
 21
103.408
 31
0.0
  0
LINE
  8
0
 62
     0
 10
9.59527
 20
103.408
 30
0.0
 11
10.1051
 21
103.489
 31
0.0
  0
LINE
  8
0
 62
     0
 10
10.1051
 20
103.489
 30
0.0
 11
10.564
 21
103.724
 31
0.0
  0
LINE
  8
0
 62
     0
 10
10.564
 20
103.724
 30
0.0
 11
10.9292
 21
104.089
 31
0.0
  0
LINE
  8
0
 62
     0
 10
10.9292
 20
104.089
 30
0.0
 11
11.1635
 21
104.547
 31
0.0
  0
LINE
  8
0
 62
     0
 10
11.1635
 20
104.547
 30
0.0
 11
11.2448
 21
105.058
 31
0.0
  0
LINE
  8
0
 62
     0
 10
11.2448
 20
105.058
 30
0.0
 11
11.1635
 21
105.567
 31
0.0
  0
LINE
  8
0
 62
     0
 10
11.1635
 20
105.567
 30
0.0
 11
10.9292
 21
106.028
 31
0.0
  0
LINE
  8
0
 62
     0
 10
10.9292
 20
106.028
 30
0.0
 11
10.564
 21
106.393
 31
0.0
  0
LINE
  8
0
 62
     0
 10
10.564
 20
106.393
 30
0.0
 11
10.1051
 21
106.627
 31
0.0
  0
LINE
  8
0
 62
     0
 10
10.1051
 20
106.627
 30
0.0
 11
9.59527
 21
106.707
 31
0.0
  0
LINE
  8
0
 62
     0
 10
9.59527
 20
106.707
 30
0.0
 11
9.0854
 21
106.627
 31
0.0
  0
LINE
  8
0
 62
     0
 10
256.686
 20
106.627
 30
0.0
 11
256.226
 21
106.393
 31
0.0
  0
LINE
  8
0
 62
     0
 10
256.226
 20
106.393
 30
0.0
 11
255.862
 21
106.028
 31
0.0
  0
LINE
  8
0
 62
     0
 10
255.862
 20
106.028
 30
0.0
 11
255.626
 21
105.567
 31
0.0
  0
LINE
  8
0
 62
     0
 10
255.626
 20
105.567
 30
0.0
 11
255.546
 21
105.058
 31
0.0
  0
LINE
  8
0
 62
     0
 10
255.546
 20
105.058
 30
0.0
 11
255.626
 21
104.547
 31
0.0
  0
LINE
  8
0
 62
     0
 10
255.626
 20
104.547
 30
0.0
 11
255.862
 21
104.089
 31
0.0
  0
LINE
  8
0
 62
     0
 10
255.862
 20
104.089
 30
0.0
 11
256.226
 21
103.724
 31
0.0
  0
LINE
  8
0
 62
     0
 10
256.226
 20
103.724
 30
0.0
 11
256.686
 21
103.489
 31
0.0
  0
LINE
  8
0
 62
     0
 10
256.686
 20
103.489
 30
0.0
 11
257.197
 21
103.408
 31
0.0
  0
LINE
  8
0
 62
     0
 10
257.197
 20
103.408
 30
0.0
 11
257.706
 21
103.489
 31
0.0
  0
LINE
  8
0
 62
     0
 10
257.706
 20
103.489
 30
0.0
 11
258.166
 21
103.724
 31
0.0
  0
LINE
  8
0
 62
     0
 10
258.166
 20
103.724
 30
0.0
 11
258.531
 21
104.089
 31
0.0
  0
LINE
  8
0
 62
     0
 10
258.531
 20
104.089
 30
0.0
 11
258.765
 21
104.547
 31
0.0
  0
LINE
  8
0
 62
     0
 10
258.765
 20
104.547
 30
0.0
 11
258.846
 21
105.058
 31
0.0
  0
LINE
  8
0
 62
     0
 10
258.846
 20
105.058
 30
0.0
 11
258.765
 21
105.567
 31
0.0
  0
LINE
  8
0
 62
     0
 10
258.765
 20
105.567
 30
0.0
 11
258.531
 21
106.028
 31
0.0
  0
LINE
  8
0
 62
     0
 10
258.531
 20
106.028
 30
0.0
 11
258.166
 21
106.393
 31
0.0
  0
LINE
  8
0
 62
     0
 10
258.166
 20
106.393
 30
0.0
 11
257.706
 21
106.627
 31
0.0
  0
LINE
  8
0
 62
     0
 10
257.706
 20
106.627
 30
0.0
 11
257.197
 21
106.707
 31
0.0
  0
LINE
  8
0
 62
     0
 10
257.197
 20
106.707
 30
0.0
 11
256.686
 21
106.627
 31
0.0
  0
LINE
  8
0
 62
     0
 10
174.152
 20
106.627
 30
0.0
 11
173.692
 21
106.393
 31
0.0
  0
LINE
  8
0
 62
     0
 10
173.692
 20
106.393
 30
0.0
 11
173.327
 21
106.028
 31
0.0
  0
LINE
  8
0
 62
     0
 10
173.327
 20
106.028
 30
0.0
 11
173.094
 21
105.567
 31
0.0
  0
LINE
  8
0
 62
     0
 10
173.094
 20
105.567
 30
0.0
 11
173.013
 21
105.058
 31
0.0
  0
LINE
  8
0
 62
     0
 10
173.013
 20
105.058
 30
0.0
 11
173.094
 21
104.547
 31
0.0
  0
LINE
  8
0
 62
     0
 10
173.094
 20
104.547
 30
0.0
 11
173.327
 21
104.089
 31
0.0
  0
LINE
  8
0
 62
     0
 10
173.327
 20
104.089
 30
0.0
 11
173.692
 21
103.724
 31
0.0
  0
LINE
  8
0
 62
     0
 10
173.692
 20
103.724
 30
0.0
 11
174.152
 21
103.489
 31
0.0
  0
LINE
  8
0
 62
     0
 10
174.152
 20
103.489
 30
0.0
 11
174.662
 21
103.408
 31
0.0
  0
LINE
  8
0
 62
     0
 10
174.662
 20
103.408
 30
0.0
 11
175.172
 21
103.489
 31
0.0
  0
LINE
  8
0
 62
     0
 10
175.172
 20
103.489
 30
0.0
 11
175.632
 21
103.724
 31
0.0
  0
LINE
  8
0
 62
     0
 10
175.632
 20
103.724
 30
0.0
 11
175.998
 21
104.089
 31
0.0
  0
LINE
  8
0
 62
     0
 10
175.998
 20
104.089
 30
0.0
 11
176.232
 21
104.547
 31
0.0
  0
LINE
  8
0
 62
     0
 10
176.232
 20
104.547
 30
0.0
 11
176.313
 21
105.058
 31
0.0
  0
LINE
  8
0
 62
     0
 10
176.313
 20
105.058
 30
0.0
 11
176.232
 21
105.567
 31
0.0
  0
LINE
  8
0
 62
     0
 10
176.232
 20
105.567
 30
0.0
 11
175.998
 21
106.028
 31
0.0
  0
LINE
  8
0
 62
     0
 10
175.998
 20
106.028
 30
0.0
 11
175.632
 21
106.393
 31
0.0
  0
LINE
  8
0
 62
     0
 10
175.632
 20
106.393
 30
0.0
 11
175.172
 21
106.627
 31
0.0
  0
LINE
  8
0
 62
     0
 10
175.172
 20
106.627
 30
0.0
 11
174.662
 21
106.707
 31
0.0
  0
LINE
  8
0
 62
     0
 10
174.662
 20
106.707
 30
0.0
 11
174.152
 21
106.627
 31
0.0
  0
LINE
  8
0
 62
     0
 10
91.6189
 20
106.627
 30
0.0
 11
91.1585
 21
106.393
 31
0.0
  0
LINE
  8
0
 62
     0
 10
91.1585
 20
106.393
 30
0.0
 11
90.7934
 21
106.028
 31
0.0
  0
LINE
  8
0
 62
     0
 10
90.7934
 20
106.028
 30
0.0
 11
90.5591
 21
105.567
 31
0.0
  0
LINE
  8
0
 62
     0
 10
90.5591
 20
105.567
 30
0.0
 11
90.478
 21
105.058
 31
0.0
  0
LINE
  8
0
 62
     0
 10
90.478
 20
105.058
 30
0.0
 11
90.5591
 21
104.547
 31
0.0
  0
LINE
  8
0
 62
     0
 10
90.5591
 20
104.547
 30
0.0
 11
90.7934
 21
104.089
 31
0.0
  0
LINE
  8
0
 62
     0
 10
90.7934
 20
104.089
 30
0.0
 11
91.1585
 21
103.724
 31
0.0
  0
LINE
  8
0
 62
     0
 10
91.1585
 20
103.724
 30
0.0
 11
91.6189
 21
103.489
 31
0.0
  0
LINE
  8
0
 62
     0
 10
91.6189
 20
103.489
 30
0.0
 11
92.1286
 21
103.408
 31
0.0
  0
LINE
  8
0
 62
     0
 10
92.1286
 20
103.408
 30
0.0
 11
92.6387
 21
103.489
 31
0.0
  0
LINE
  8
0
 62
     0
 10
92.6387
 20
103.489
 30
0.0
 11
93.0988
 21
103.724
 31
0.0
  0
LINE
  8
0
 62
     0
 10
93.0988
 20
103.724
 30
0.0
 11
93.4642
 21
104.089
 31
0.0
  0
LINE
  8
0
 62
     0
 10
93.4642
 20
104.089
 30
0.0
 11
93.6971
 21
104.547
 31
0.0
  0
LINE
  8
0
 62
     0
 10
93.6971
 20
104.547
 30
0.0
 11
93.7782
 21
105.058
 31
0.0
  0
LINE
  8
0
 62
     0
 10
93.7782
 20
105.058
 30
0.0
 11
93.6971
 21
105.567
 31
0.0
  0
LINE
  8
0
 62
     0
 10
93.6971
 20
105.567
 30
0.0
 11
93.4642
 21
106.028
 31
0.0
  0
LINE
  8
0
 62
     0
 10
93.4642
 20
106.028
 30
0.0
 11
93.0988
 21
106.393
 31
0.0
  0
LINE
  8
0
 62
     0
 10
93.0988
 20
106.393
 30
0.0
 11
92.6387
 21
106.627
 31
0.0
  0
LINE
  8
0
 62
     0
 10
92.6387
 20
106.627
 30
0.0
 11
92.1286
 21
106.707
 31
0.0
  0
LINE
  8
0
 62
     0
 10
92.1286
 20
106.707
 30
0.0
 11
91.6189
 21
106.627
 31
0.0
  0
ENDSEC
  0
EOF
